<?xml version="1.0" encoding="UTF-8"?>
<svg width="40px" height="39px" viewBox="0 0 40 39" version="1.1" xmlns="http://www.w3.org/2000/svg" xmlns:xlink="http://www.w3.org/1999/xlink">
    <!-- Generator: Sketch 51.3 (57544) - http://www.bohemiancoding.com/sketch -->
    <title>Group 4</title>
    <desc>Created with Sketch.</desc>
    <defs></defs>
    <g id="Page-1" stroke="none" stroke-width="1" fill="none" fill-rule="evenodd">
        <g id="HR-Anywhere-Home-Page" transform="translate(-96.000000, -264.000000)" fill="#FFFFFF" fill-rule="nonzero">
            <g id="Approve-Leave" transform="translate(25.000000, 223.666667)">
                <g id="Group-4" transform="translate(71.000000, 41.000000)">
                    <g id="noun_Calendar_142745">
                        <path d="M25.0707317,3.70731707 L14.5512195,3.70731707 L14.5512195,5.09756098 L25.0707317,5.09756098 L25.0707317,3.70731707 Z M35.2195122,3.70731707 L29.195122,3.70731707 L29.195122,5.09756098 L35.2195122,5.09756098 C36.6097561,5.09756098 37.7682927,6.25609756 37.7682927,7.64634146 L37.7682927,29.6585366 L34.7097561,29.6585366 C32.5317073,29.6585366 30.7707317,31.4195122 30.7707317,33.597561 L30.7707317,36.6097561 L4.17073171,36.6097561 C2.7804878,36.6097561 1.62195122,35.4512195 1.62195122,34.0609756 L1.62195122,7.64634146 C1.62195122,6.25609756 2.7804878,5.09756098 4.17073171,5.09756098 L10.4268293,5.09756098 L10.4268293,3.70731707 L4.17073171,3.70731707 C1.99268293,3.70731707 0.231707317,5.46829268 0.231707317,7.64634146 L0.231707317,34.0609756 C0.231707317,36.2390244 1.99268293,38 4.17073171,38 L32.1609756,38 L32.2073171,37.9536585 L38.9731707,31.2804878 L39.1585366,31.095122 L39.1585366,7.64634146 C39.1585366,5.46829268 37.397561,3.70731707 35.2195122,3.70731707 Z M32.1609756,36.0073171 L32.1609756,33.597561 C32.1609756,32.2073171 33.3195122,31.0487805 34.7097561,31.0487805 L37.2121951,31.0487805 L32.1609756,36.0073171 Z M12.4658537,8.89756098 C12.8365854,8.89756098 13.1609756,8.57317073 13.1609756,8.20243902 L13.1609756,0.695121951 C13.1609756,0.324390244 12.8365854,0 12.4658537,0 C12.095122,0 11.7707317,0.324390244 11.7707317,0.695121951 L11.7707317,8.20243902 C11.7707317,8.6195122 12.095122,8.89756098 12.4658537,8.89756098 Z M27.1560976,8.89756098 C27.5268293,8.89756098 27.8512195,8.57317073 27.8512195,8.20243902 L27.8512195,0.695121951 C27.8512195,0.324390244 27.5268293,0 27.1560976,0 C26.7853659,0 26.4609756,0.324390244 26.4609756,0.695121951 L26.4609756,8.20243902 C26.4609756,8.6195122 26.7390244,8.89756098 27.1560976,8.89756098 Z M17.6560976,29.5658537 C17.795122,29.704878 17.9804878,29.797561 18.1658537,29.797561 C18.397561,29.797561 18.5829268,29.704878 18.7219512,29.5195122 L29.9829268,15.2 C30.2146341,14.8756098 30.1682927,14.4585366 29.8439024,14.2268293 C29.5658537,13.995122 29.102439,14.0414634 28.8707317,14.3658537 L18.1658537,28.0365854 L11.8634146,20.3902439 C11.6317073,20.1121951 11.1682927,20.0658537 10.8902439,20.297561 C10.6121951,20.5292683 10.5658537,20.9926829 10.797561,21.2707317 L17.6560976,29.5658537 Z" id="Shape"></path>
                    </g>
                </g>
            </g>
        </g>
    </g>
</svg>