<?xml version="1.0" encoding="UTF-8"?>
<svg width="22px" height="21px" viewBox="0 0 22 21" version="1.1" xmlns="http://www.w3.org/2000/svg" xmlns:xlink="http://www.w3.org/1999/xlink">
    <!-- Generator: Sketch 51.3 (57544) - http://www.bohemiancoding.com/sketch -->
    <title>noun_Calendar_142745 Copy</title>
    <desc>Created with Sketch.</desc>
    <defs></defs>
    <g id="Page-1" stroke="none" stroke-width="1" fill="none" fill-rule="evenodd">
        <g id="Select-Dates" transform="translate(-102.000000, -834.000000)" fill="#929292" fill-rule="nonzero">
            <g id="UITabBar" transform="translate(0.000000, 825.000000)">
                <g id="Request" transform="translate(75.000000, 0.000000)">
                    <g id="noun_Calendar_142745-Copy" transform="translate(27.000000, 9.000000)">
                        <path d="M13.854878,2.04878049 L8.04146341,2.04878049 L8.04146341,2.81707317 L13.854878,2.81707317 L13.854878,2.04878049 Z M19.4634146,2.04878049 L16.1341463,2.04878049 L16.1341463,2.81707317 L19.4634146,2.81707317 C20.2317073,2.81707317 20.8719512,3.45731707 20.8719512,4.22560976 L20.8719512,16.3902439 L19.1817073,16.3902439 C17.9780488,16.3902439 17.004878,17.3634146 17.004878,18.5670732 L17.004878,20.2317073 L2.30487805,20.2317073 C1.53658537,20.2317073 0.896341463,19.5914634 0.896341463,18.8231707 L0.896341463,4.22560976 C0.896341463,3.45731707 1.53658537,2.81707317 2.30487805,2.81707317 L5.76219512,2.81707317 L5.76219512,2.04878049 L2.30487805,2.04878049 C1.10121951,2.04878049 0.12804878,3.02195122 0.12804878,4.22560976 L0.12804878,18.8231707 C0.12804878,20.0268293 1.10121951,21 2.30487805,21 L17.7731707,21 L17.7987805,20.9743902 L21.5378049,17.2865854 L21.6402439,17.1841463 L21.6402439,4.22560976 C21.6402439,3.02195122 20.6670732,2.04878049 19.4634146,2.04878049 Z M17.7731707,19.8987805 L17.7731707,18.5670732 C17.7731707,17.7987805 18.4134146,17.1585366 19.1817073,17.1585366 L20.5646341,17.1585366 L17.7731707,19.8987805 Z M6.88902439,4.91707317 C7.09390244,4.91707317 7.27317073,4.73780488 7.27317073,4.53292683 L7.27317073,0.384146341 C7.27317073,0.179268293 7.09390244,0 6.88902439,0 C6.68414634,0 6.50487805,0.179268293 6.50487805,0.384146341 L6.50487805,4.53292683 C6.50487805,4.76341463 6.68414634,4.91707317 6.88902439,4.91707317 Z M15.0073171,4.91707317 C15.2121951,4.91707317 15.3914634,4.73780488 15.3914634,4.53292683 L15.3914634,0.384146341 C15.3914634,0.179268293 15.2121951,0 15.0073171,0 C14.802439,0 14.6231707,0.179268293 14.6231707,0.384146341 L14.6231707,4.53292683 C14.6231707,4.76341463 14.7768293,4.91707317 15.0073171,4.91707317 Z M9.75731707,16.3390244 C9.83414634,16.4158537 9.93658537,16.4670732 10.0390244,16.4670732 C10.1670732,16.4670732 10.2695122,16.4158537 10.3463415,16.3134146 L16.5695122,8.4 C16.697561,8.22073171 16.6719512,7.9902439 16.4926829,7.86219512 C16.3390244,7.73414634 16.0829268,7.7597561 15.954878,7.93902439 L10.0390244,15.4939024 L6.55609756,11.2682927 C6.42804878,11.1146341 6.17195122,11.0890244 6.01829268,11.2170732 C5.86463415,11.345122 5.83902439,11.6012195 5.96707317,11.754878 L9.75731707,16.3390244 Z" id="Shape"></path>
                    </g>
                </g>
            </g>
        </g>
    </g>
</svg>