<?xml version="1.0" encoding="UTF-8"?>
<svg width="26px" height="15px" viewBox="0 0 26 15" version="1.1" xmlns="http://www.w3.org/2000/svg" xmlns:xlink="http://www.w3.org/1999/xlink">
    <!-- Generator: Sketch 51.3 (57544) - http://www.bohemiancoding.com/sketch -->
    <title>noun_team_572083</title>
    <desc>Created with Sketch.</desc>
    <defs></defs>
    <g id="Page-1" stroke="none" stroke-width="1" fill="none" fill-rule="evenodd">
        <g id="Select-Dates" transform="translate(-324.000000, -837.000000)" fill="#929292" fill-rule="nonzero">
            <g id="UITabBar" transform="translate(0.000000, 825.000000)">
                <g id="Search" transform="translate(300.000000, 0.000000)">
                    <g id="noun_team_572083" transform="translate(24.000000, 12.000000)">
                        <path d="M22.3488611,6.05955556 C22.9613333,5.6865 23.375,5.01830556 23.375,4.25 C23.375,3.07841667 22.4215833,2.125 21.25,2.125 C20.0784167,2.125 19.125,3.07841667 19.125,4.25 C19.125,5.01830556 19.5386667,5.6865 20.1511389,6.05955556 C18.6008333,6.5025 17.42925,7.85211111 17.2583056,9.49827778 C16.4158611,8.75830556 15.3930278,8.22186111 14.2625278,7.96544444 C15.7278333,7.36713889 16.7638889,5.92827778 16.7638889,4.25 C16.7638889,2.03669444 14.9633056,0.236111111 12.75,0.236111111 C10.5366944,0.236111111 8.73611111,2.03669444 8.73611111,4.25 C8.73611111,5.92827778 9.77216667,7.36713889 11.2374722,7.96591667 C10.1069722,8.22186111 9.08461111,8.75830556 8.24169444,9.49875 C8.07075,7.85258333 6.89963889,6.5025 5.34933333,6.06002778 C5.96133333,5.6865 6.375,5.01783333 6.375,4.25 C6.375,3.07841667 5.42158333,2.125 4.25,2.125 C3.07841667,2.125 2.125,3.07841667 2.125,4.25 C2.125,5.01783333 2.53866667,5.6865 3.15066667,6.05955556 C1.47097222,6.53933333 0.236111111,8.08491667 0.236111111,9.91666667 C0.236111111,10.047 0.341888889,10.1527778 0.472222222,10.1527778 C0.602555556,10.1527778 0.708333333,10.047 0.708333333,9.91666667 C0.708333333,7.96355556 2.29688889,6.375 4.25,6.375 C6.20311111,6.375 7.79166667,7.96355556 7.79166667,9.91666667 C7.79166667,9.92091667 7.79355556,9.92422222 7.79402778,9.92752778 C6.62527778,11.1567222 5.90277778,12.81375 5.90277778,14.6388889 C5.90277778,14.7692222 6.00855556,14.875 6.13888889,14.875 C6.26922222,14.875 6.375,14.7692222 6.375,14.6388889 C6.375,11.1236667 9.23477778,8.26388889 12.75,8.26388889 C16.2652222,8.26388889 19.125,11.1236667 19.125,14.6388889 C19.125,14.7692222 19.2307778,14.875 19.3611111,14.875 C19.4914444,14.875 19.5972222,14.7692222 19.5972222,14.6388889 C19.5972222,12.81375 18.8747222,11.1567222 17.7059722,9.92752778 C17.7064444,9.92422222 17.7083333,9.92091667 17.7083333,9.91666667 C17.7083333,7.96355556 19.2968889,6.375 21.25,6.375 C23.2031111,6.375 24.7916667,7.96355556 24.7916667,9.91666667 C24.7916667,10.047 24.8974444,10.1527778 25.0277778,10.1527778 C25.1581111,10.1527778 25.2638889,10.047 25.2638889,9.91666667 C25.2638889,8.08491667 24.0290278,6.53933333 22.3488611,6.05955556 Z M2.59722222,4.25 C2.59722222,3.33861111 3.33861111,2.59722222 4.25,2.59722222 C5.16138889,2.59722222 5.90277778,3.33861111 5.90277778,4.25 C5.90277778,5.16138889 5.16138889,5.90277778 4.25,5.90277778 C3.33861111,5.90277778 2.59722222,5.16138889 2.59722222,4.25 Z M9.20833333,4.25 C9.20833333,2.29688889 10.7968889,0.708333333 12.75,0.708333333 C14.7031111,0.708333333 16.2916667,2.29688889 16.2916667,4.25 C16.2916667,6.20311111 14.7031111,7.79166667 12.75,7.79166667 C10.7968889,7.79166667 9.20833333,6.20311111 9.20833333,4.25 Z M19.5972222,4.25 C19.5972222,3.33861111 20.3386111,2.59722222 21.25,2.59722222 C22.1613889,2.59722222 22.9027778,3.33861111 22.9027778,4.25 C22.9027778,5.16138889 22.1613889,5.90277778 21.25,5.90277778 C20.3386111,5.90277778 19.5972222,5.16138889 19.5972222,4.25 Z" id="Shape"></path>
                    </g>
                </g>
            </g>
        </g>
    </g>
</svg>