<?xml version="1.0" encoding="UTF-8"?>
<svg width="19px" height="21px" viewBox="0 0 19 21" version="1.1" xmlns="http://www.w3.org/2000/svg" xmlns:xlink="http://www.w3.org/1999/xlink">
    <!-- Generator: Sketch 51.3 (57544) - http://www.bohemiancoding.com/sketch -->
    <title>noun_admin_1046322</title>
    <desc>Created with Sketch.</desc>
    <defs></defs>
    <g id="Page-1" stroke="none" stroke-width="1" fill="none" fill-rule="evenodd">
        <g id="Details" transform="translate(-319.000000, -675.000000)" fill="#929292" fill-rule="nonzero">
            <g id="UITabBar" transform="translate(0.000000, 668.000000)">
                <g id="Admin" transform="translate(281.000000, 0.000000)">
                    <g id="noun_admin_1046322" transform="translate(38.000000, 7.000000)">
                        <path d="M17.3062216,3.28125 C14.3984734,3.28125 11.5945733,2.23125 9.48299423,0.328125 C9.20571967,0.0984375 8.79067323,0.0984375 8.54836088,0.328125 C6.43678181,2.23125 3.63288173,3.28125 0.725133506,3.28125 C0.344356953,3.28125 0.0328125,3.5765625 0.0328125,3.9375 L0.0328125,14.175 C0.0328125,14.2734375 0.0674285503,14.3390625 0.102044601,14.4375 C1.52130266,17.4890625 4.25597064,19.753125 7.64834357,20.6390625 C7.72034495,20.65875 9.03298558,21 9.03298558,21 C9.03298558,21 10.3307413,20.6630156 10.4176276,20.6390625 C13.8100005,19.753125 16.5446685,17.4890625 17.9639266,14.4375 C17.9985426,14.3390625 18.0328125,14.2734375 18.0328125,14.175 L18.0328125,3.9375 C17.9985426,3.5765625 17.6869982,3.28125 17.3062216,3.28125 Z M17.0328125,14.2141281 C15.7237216,16.9851135 13.2146307,19.0287152 10.1237216,19.8600108 L9.0328125,20.1371094 L7.94190341,19.8600108 C4.85099432,19.0290616 2.34190341,16.9851135 1.0328125,14.2141281 L1.0328125,4.20394332 C3.97826705,4.06539405 6.77826705,2.9916372 9.0328125,1.15585937 C11.287358,2.9916372 14.087358,4.06539405 17.0328125,4.20394332 L17.0328125,14.2141281 Z M8.5109375,9.53554687 C8.346875,9.20742187 8.2484375,8.84648437 8.21595312,8.45273437 C8.21595312,7.17304687 9.23314062,6.15585937 10.5128281,6.15585937 C11.7921875,6.15585937 12.8097031,7.17304687 12.8097031,8.45273437 C12.8097031,9.73242187 11.7921875,10.7496094 10.5128281,10.7496094 C10.1190781,10.7496094 9.7578125,10.6511719 9.4296875,10.4871094 L8.1828125,11.7339844 L9.0359375,12.5871094 L8.1171875,13.5061875 L7.2640625,12.6527344 L6.8703125,13.0464844 L7.7234375,13.8992812 L6.8046875,14.8183594 L5.0328125,13.0464844 L8.5109375,9.53554687 Z M10.5328123,7 C9.68281239,7 9.0328125,7.64999989 9.0328125,8.49999975 C9.0328125,9.34999961 9.68281239,9.9999995 10.5328123,9.9999995 C11.3828121,9.9999995 12.032812,9.34999961 12.032812,8.49999975 C12.032812,7.64999989 11.3828121,7 10.5328123,7 Z" id="Shape"></path>
                    </g>
                </g>
            </g>
        </g>
    </g>
</svg>