<?xml version="1.0" encoding="UTF-8"?>
<svg width="40px" height="38px" viewBox="0 0 40 38" version="1.1" xmlns="http://www.w3.org/2000/svg" xmlns:xlink="http://www.w3.org/1999/xlink">
    <!-- Generator: Sketch 51.3 (57544) - http://www.bohemiancoding.com/sketch -->
    <title>Group 4</title>
    <desc>Created with Sketch.</desc>
    <defs></defs>
    <g id="Page-1" stroke="none" stroke-width="1" fill="none" fill-rule="evenodd">
        <g id="HR-Anywhere-Home-Page" transform="translate(-96.000000, -126.000000)" fill="#FFFFFF" fill-rule="nonzero">
            <g id="Request-Leave" transform="translate(25.000000, 85.000000)">
                <g id="Group-4" transform="translate(71.000000, 41.000000)">
                    <g id="noun_Calendar_142745">
                        <path d="M25.0707317,3.70731707 L14.5512195,3.70731707 L14.5512195,5.09756098 L25.0707317,5.09756098 L25.0707317,3.70731707 Z M35.2195122,3.70731707 L29.195122,3.70731707 L29.195122,5.09756098 L35.2195122,5.09756098 C36.6097561,5.09756098 37.7682927,6.25609756 37.7682927,7.64634146 L37.7682927,29.6585366 L34.7097561,29.6585366 C32.5317073,29.6585366 30.7707317,31.4195122 30.7707317,33.597561 L30.7707317,36.6097561 L4.17073171,36.6097561 C2.7804878,36.6097561 1.62195122,35.4512195 1.62195122,34.0609756 L1.62195122,7.64634146 C1.62195122,6.25609756 2.7804878,5.09756098 4.17073171,5.09756098 L10.4268293,5.09756098 L10.4268293,3.70731707 L4.17073171,3.70731707 C1.99268293,3.70731707 0.231707317,5.46829268 0.231707317,7.64634146 L0.231707317,34.0609756 C0.231707317,36.2390244 1.99268293,38 4.17073171,38 L32.1609756,38 L32.2073171,37.9536585 L38.9731707,31.2804878 L39.1585366,31.095122 L39.1585366,7.64634146 C39.1585366,5.46829268 37.397561,3.70731707 35.2195122,3.70731707 Z M32.1609756,36.0073171 L32.1609756,33.597561 C32.1609756,32.2073171 33.3195122,31.0487805 34.7097561,31.0487805 L37.2121951,31.0487805 L32.1609756,36.0073171 Z M12.4658537,8.89756098 C12.8365854,8.89756098 13.1609756,8.57317073 13.1609756,8.20243902 L13.1609756,0.695121951 C13.1609756,0.324390244 12.8365854,0 12.4658537,0 C12.095122,0 11.7707317,0.324390244 11.7707317,0.695121951 L11.7707317,8.20243902 C11.7707317,8.6195122 12.095122,8.89756098 12.4658537,8.89756098 Z M27.1560976,8.89756098 C27.5268293,8.89756098 27.8512195,8.57317073 27.8512195,8.20243902 L27.8512195,0.695121951 C27.8512195,0.324390244 27.5268293,0 27.1560976,0 C26.7853659,0 26.4609756,0.324390244 26.4609756,0.695121951 L26.4609756,8.20243902 C26.4609756,8.6195122 26.7390244,8.89756098 27.1560976,8.89756098 Z" id="Shape"></path>
                    </g>
                    <g id="Group" transform="translate(5.500000, 12.000000)">
                        <g id="Group-6" transform="translate(0.000000, 12.161290)">
                            <path d="M3.43010753,0 L0.311827957,0 C0.124731183,0 0,0.124731183 0,0.311827957 L0,3.43010753 C0,3.6172043 0.124731183,3.74193548 0.311827957,3.74193548 L3.43010753,3.74193548 C3.6172043,3.74193548 3.74193548,3.6172043 3.74193548,3.43010753 L3.74193548,0.311827957 C3.74193548,0.124731183 3.6172043,0 3.43010753,0 Z" id="Shape"></path>
                            <path d="M9.66666667,0 L6.5483871,0 C6.36129032,0 6.23655914,0.124731183 6.23655914,0.311827957 L6.23655914,3.43010753 C6.23655914,3.6172043 6.36129032,3.74193548 6.5483871,3.74193548 L9.66666667,3.74193548 C9.85376344,3.74193548 9.97849462,3.6172043 9.97849462,3.43010753 L9.97849462,0.311827957 C9.97849462,0.124731183 9.85376344,0 9.66666667,0 Z" id="Shape"></path>
                            <path d="M15.9032258,0 L12.7849462,0 C12.5978495,0 12.4731183,0.124731183 12.4731183,0.311827957 L12.4731183,3.43010753 C12.4731183,3.6172043 12.5978495,3.74193548 12.7849462,3.74193548 L15.9032258,3.74193548 C16.0903226,3.74193548 16.2150538,3.6172043 16.2150538,3.43010753 L16.2150538,0.311827957 C16.2150538,0.124731183 16.0903226,0 15.9032258,0 Z" id="Shape"></path>
                            <path d="M22.1397849,0 L19.0215054,0 C18.8344086,0 18.7096774,0.124731183 18.7096774,0.311827957 L18.7096774,3.43010753 C18.7096774,3.6172043 18.8344086,3.74193548 19.0215054,3.74193548 L22.1397849,3.74193548 C22.3268817,3.74193548 22.4516129,3.6172043 22.4516129,3.43010753 L22.4516129,0.311827957 C22.4516129,0.124731183 22.3268817,0 22.1397849,0 Z" id="Shape"></path>
                        </g>
                        <g id="Group-7" transform="translate(5.612903, 0.701613)">
                            <path d="M4.27516129,0.269639469 C4.15043011,0.144908286 3.96333333,0.144908286 3.83860215,0.269639469 L2.49774194,1.61049968 L1.15688172,0.269639469 C1.03215054,0.144908286 0.845053763,0.144908286 0.720322581,0.269639469 C0.595591398,0.394370651 0.595591398,0.581467426 0.720322581,0.706198608 L2.0611828,2.04705882 L0.720322581,3.38791904 C0.595591398,3.51265022 0.595591398,3.699747 0.720322581,3.82447818 C0.782688172,3.88684377 0.876236559,3.91802657 0.938602151,3.91802657 C1.00096774,3.91802657 1.09451613,3.88684377 1.15688172,3.82447818 L2.49774194,2.48361796 L3.83860215,3.82447818 C3.90096774,3.88684377 3.99451613,3.91802657 4.05688172,3.91802657 C4.11924731,3.91802657 4.2127957,3.88684377 4.27516129,3.82447818 C4.39989247,3.699747 4.39989247,3.51265022 4.27516129,3.38791904 L2.93430108,2.04705882 L4.27516129,0.706198608 C4.39989247,0.581467426 4.39989247,0.394370651 4.27516129,0.269639469 Z" id="Shape"></path>
                            <path d="M10.5054839,0.269639469 C10.3807527,0.144908286 10.1936559,0.144908286 10.0689247,0.269639469 L8.72806452,1.61049968 L7.3872043,0.269639469 C7.26247312,0.144908286 7.07537634,0.144908286 6.95064516,0.269639469 C6.82591398,0.394370651 6.82591398,0.581467426 6.95064516,0.706198608 L8.29150538,2.04705882 L6.95064516,3.38791904 C6.82591398,3.51265022 6.82591398,3.699747 6.95064516,3.82447818 C7.01301075,3.88684377 7.10655914,3.91802657 7.16892473,3.91802657 C7.23129032,3.91802657 7.32483871,3.88684377 7.3872043,3.82447818 L8.72806452,2.48361796 L10.0689247,3.82447818 C10.1312903,3.88684377 10.2248387,3.91802657 10.2872043,3.91802657 C10.3495699,3.91802657 10.4431183,3.88684377 10.5054839,3.82447818 C10.6302151,3.699747 10.6302151,3.51265022 10.5054839,3.38791904 L9.16462366,2.04705882 L10.5054839,0.706198608 C10.6302151,0.581467426 10.6302151,0.394370651 10.5054839,0.269639469 Z" id="Shape"></path>
                            <path d="M16.7451613,0.269639469 C16.6204301,0.144908286 16.4333333,0.144908286 16.3086022,0.269639469 L14.9677419,1.61049968 L13.6268817,0.269639469 C13.5021505,0.144908286 13.3150538,0.144908286 13.1903226,0.269639469 C13.0655914,0.394370651 13.0655914,0.581467426 13.1903226,0.706198608 L14.5311828,2.04705882 L13.1903226,3.38791904 C13.0655914,3.51265022 13.0655914,3.699747 13.1903226,3.82447818 C13.2526882,3.88684377 13.3462366,3.91802657 13.4086022,3.91802657 C13.4709677,3.91802657 13.5645161,3.88684377 13.6268817,3.82447818 L14.9677419,2.48361796 L16.3086022,3.82447818 C16.3709677,3.88684377 16.4645161,3.91802657 16.5268817,3.91802657 C16.5892473,3.91802657 16.6827957,3.88684377 16.7451613,3.82447818 C16.8698925,3.699747 16.8698925,3.51265022 16.7451613,3.38791904 L15.4043011,2.04705882 L16.7451613,0.706198608 C16.8698925,0.581467426 16.8698925,0.394370651 16.7451613,0.269639469 Z" id="Shape"></path>
                            <path d="M22.966129,0.269639469 C22.8413978,0.144908286 22.6543011,0.144908286 22.5295699,0.269639469 L21.1887097,1.61049968 L19.8478495,0.269639469 C19.7231183,0.144908286 19.5360215,0.144908286 19.4112903,0.269639469 C19.2865591,0.394370651 19.2865591,0.581467426 19.4112903,0.706198608 L20.7521505,2.04705882 L19.4112903,3.38791904 C19.2865591,3.51265022 19.2865591,3.699747 19.4112903,3.82447818 C19.4736559,3.88684377 19.5672043,3.91802657 19.6295699,3.91802657 C19.6919355,3.91802657 19.7854839,3.88684377 19.8478495,3.82447818 L21.1887097,2.48361796 L22.5295699,3.82447818 C22.5919355,3.88684377 22.6854839,3.91802657 22.7478495,3.91802657 C22.8102151,3.91802657 22.9037634,3.88684377 22.966129,3.82447818 C23.0908602,3.699747 23.0908602,3.51265022 22.966129,3.38791904 L21.6252688,2.04705882 L22.966129,0.706198608 C23.0908602,0.581467426 23.0908602,0.394370651 22.966129,0.269639469 Z" id="Shape"></path>
                        </g>
                        <g id="Group-5" transform="translate(0.000000, 6.548387)">
                            <path d="M15.9001075,0 L12.781828,0 C12.5947312,0 12.47,0.124731183 12.47,0.311827957 L12.47,3.43010753 C12.47,3.6172043 12.5947312,3.74193548 12.781828,3.74193548 L15.9001075,3.74193548 C16.0872043,3.74193548 16.2119355,3.6172043 16.2119355,3.43010753 L16.2119355,0.311827957 C16.2119355,0.124731183 16.0872043,0 15.9001075,0 Z" id="Shape"></path>
                            <path d="M22.1397849,0 L19.0215054,0 C18.8344086,0 18.7096774,0.124731183 18.7096774,0.311827957 L18.7096774,3.43010753 C18.7096774,3.6172043 18.8344086,3.74193548 19.0215054,3.74193548 L22.1397849,3.74193548 C22.3268817,3.74193548 22.4516129,3.6172043 22.4516129,3.43010753 L22.4516129,0.311827957 C22.4516129,0.124731183 22.3268817,0 22.1397849,0 Z" id="Shape"></path>
                            <path d="M28.3607527,0 L25.2424731,0 C25.0553763,0 24.9306452,0.124731183 24.9306452,0.311827957 L24.9306452,3.43010753 C24.9306452,3.6172043 25.0553763,3.74193548 25.2424731,3.74193548 L28.3607527,3.74193548 C28.5478495,3.74193548 28.6725806,3.6172043 28.6725806,3.43010753 L28.6725806,0.311827957 C28.6725806,0.124731183 28.5478495,0 28.3607527,0 Z" id="Shape"></path>
                            <path d="M3.6483871,0.0935483871 C3.52365591,-0.0311827957 3.33655914,-0.0311827957 3.21182796,0.0935483871 L1.87096774,1.4344086 L0.530107527,0.0935483871 C0.405376344,-0.0311827957 0.21827957,-0.0311827957 0.0935483871,0.0935483871 C-0.0311827957,0.21827957 -0.0311827957,0.405376344 0.0935483871,0.530107527 L1.4344086,1.87096774 L0.0935483871,3.21182796 C-0.0311827957,3.33655914 -0.0311827957,3.52365591 0.0935483871,3.6483871 C0.155913978,3.71075269 0.249462366,3.74193548 0.311827957,3.74193548 C0.374193548,3.74193548 0.467741935,3.71075269 0.530107527,3.6483871 L1.87096774,2.30752688 L3.21182796,3.6483871 C3.27419355,3.71075269 3.36774194,3.74193548 3.43010753,3.74193548 C3.49247312,3.74193548 3.58602151,3.71075269 3.6483871,3.6483871 C3.77311828,3.52365591 3.77311828,3.33655914 3.6483871,3.21182796 L2.30752688,1.87096774 L3.6483871,0.530107527 C3.77311828,0.405376344 3.77311828,0.21827957 3.6483871,0.0935483871 Z" id="Shape"></path>
                            <path d="M9.88806452,0.0935483871 C9.76333333,-0.0311827957 9.57623656,-0.0311827957 9.45150538,0.0935483871 L8.11064516,1.4344086 L6.76978495,0.0935483871 C6.64505376,-0.0311827957 6.45795699,-0.0311827957 6.33322581,0.0935483871 C6.20849462,0.21827957 6.20849462,0.405376344 6.33322581,0.530107527 L7.67408602,1.87096774 L6.33322581,3.21182796 C6.20849462,3.33655914 6.20849462,3.52365591 6.33322581,3.6483871 C6.3955914,3.71075269 6.48913978,3.74193548 6.55150538,3.74193548 C6.61387097,3.74193548 6.70741935,3.71075269 6.76978495,3.6483871 L8.11064516,2.30752688 L9.45150538,3.6483871 C9.51387097,3.71075269 9.60741935,3.74193548 9.66978495,3.74193548 C9.73215054,3.74193548 9.82569892,3.71075269 9.88806452,3.6483871 C10.0127957,3.52365591 10.0127957,3.33655914 9.88806452,3.21182796 L8.5472043,1.87096774 L9.88806452,0.530107527 C10.0127957,0.405376344 10.0127957,0.21827957 9.88806452,0.0935483871 Z" id="Shape"></path>
                        </g>
                    </g>
                </g>
            </g>
        </g>
    </g>
</svg>