<?xml version="1.0" encoding="UTF-8"?>
<svg width="20px" height="21px" viewBox="0 0 20 21" version="1.1" xmlns="http://www.w3.org/2000/svg" xmlns:xlink="http://www.w3.org/1999/xlink">
    <!-- Generator: Sketch 51.3 (57544) - http://www.bohemiancoding.com/sketch -->
    <title>noun_Previous date_548274 Copy 2</title>
    <desc>Created with Sketch.</desc>
    <defs></defs>
    <g id="Page-1" stroke="none" stroke-width="1" fill="none" fill-rule="evenodd">
        <g id="Select-Dates" transform="translate(-253.000000, -834.000000)" fill="#FFFFFF" fill-rule="nonzero">
            <g id="UITabBar" transform="translate(0.000000, 825.000000)">
                <g id="Past" transform="translate(225.000000, 0.000000)">
                    <g id="noun_Previous-date_548274-Copy-2" transform="translate(38.000000, 19.500000) scale(-1, 1) translate(-38.000000, -19.500000) translate(28.000000, 9.000000)">
                        <path d="M18.8461538,14.2153846 C18.7653846,14.1346154 18.6846154,14.0538462 18.5769231,13.9730769 C18.5769231,13.9730769 18.5769231,13.9730769 18.5769231,13.9730769 C18.4961538,13.8923077 18.3884615,13.8115385 18.3076923,13.7307692 C18.3076923,13.7307692 18.3076923,13.7307692 18.3076923,13.7307692 C18.3076923,13.7307692 18.3076923,13.7307692 18.3076923,13.7307692 C17.9846154,13.4884615 17.6346154,13.3 17.2576923,13.1653846 C17.2307692,13.1653846 17.1769231,13.1384615 17.15,13.1384615 C17.0961538,13.1115385 17.0153846,13.1115385 16.9615385,13.0846154 C16.9076923,13.0576923 16.8538462,13.0576923 16.8,13.0307692 C16.7461538,13.0307692 16.6923077,13.0038462 16.6384615,13.0038462 C16.5576923,12.9769231 16.4769231,12.9769231 16.4230769,12.9769231 C16.3692308,12.9769231 16.3423077,12.9769231 16.2884615,12.95 C16.1269231,12.9230769 16.0192308,12.9230769 15.8846154,12.9230769 C15.3192308,12.9230769 14.8076923,13.0307692 14.3230769,13.2461538 C13.9730769,13.4076923 13.6230769,13.5961538 13.3269231,13.8384615 C13.0307692,14.0807692 12.7615385,14.3769231 12.5461538,14.7 C12.0884615,15.3461538 11.8461538,16.1269231 11.8461538,16.9615385 C11.8461538,17.0961538 11.8461538,17.2038462 11.8730769,17.3384615 C11.8730769,17.3923077 11.8730769,17.4192308 11.9,17.4730769 C11.9,17.5538462 11.9269231,17.6346154 11.9269231,17.6884615 C11.9269231,17.7423077 11.9538462,17.7961538 11.9538462,17.85 C11.9538462,17.9038462 11.9807692,17.9576923 12.0076923,18.0115385 C12.0346154,18.0653846 12.0346154,18.1461538 12.0615385,18.2 C12.0615385,18.2269231 12.0884615,18.2807692 12.0884615,18.3076923 C12.2769231,18.7923077 12.5461538,19.25 12.8961538,19.6269231 C12.8961538,19.6269231 12.8961538,19.6269231 12.8961538,19.6269231 C13.0576923,19.8153846 13.2461538,19.9769231 13.4346154,20.1115385 C13.4346154,20.1115385 13.4346154,20.1115385 13.4346154,20.1115385 C13.5423077,20.1923077 13.6230769,20.2461538 13.7307692,20.3269231 C13.7307692,20.3269231 13.7307692,20.3269231 13.7307692,20.3269231 C13.8384615,20.3807692 13.9192308,20.4346154 14.0269231,20.4884615 C14.0269231,20.4884615 14.0538462,20.4884615 14.0538462,20.5153846 C14.1615385,20.5692308 14.2423077,20.5961538 14.35,20.65 C14.3769231,20.65 14.4038462,20.6769231 14.4307692,20.6769231 C14.5115385,20.7038462 14.6192308,20.7576923 14.7,20.7846154 C14.7538462,20.7846154 14.7807692,20.8115385 14.8346154,20.8115385 C14.9153846,20.8384615 14.9961538,20.8653846 15.0769231,20.8653846 C15.1576923,20.8923077 15.2115385,20.8923077 15.2923077,20.8923077 C15.3461538,20.8923077 15.4,20.9192308 15.4807692,20.9192308 C15.6153846,20.9192308 15.75,20.9461538 15.8846154,20.9461538 C18.1192308,20.9461538 19.9230769,19.1423077 19.9230769,16.9076923 C19.9230769,16.7730769 19.9230769,16.6384615 19.8961538,16.5038462 C19.8961538,16.45 19.8692308,16.3961538 19.8692308,16.3153846 C19.8692308,16.2346154 19.8423077,16.1807692 19.8423077,16.1 C19.8153846,16.0192308 19.8153846,15.9384615 19.7884615,15.8576923 C19.7884615,15.8038462 19.7615385,15.7769231 19.7615385,15.7230769 C19.7346154,15.6423077 19.7076923,15.5346154 19.6538462,15.4538462 C19.6538462,15.4269231 19.6269231,15.4 19.6269231,15.3730769 C19.5730769,15.2653846 19.5461538,15.1846154 19.4923077,15.0769231 C19.4923077,15.05 19.4923077,15.05 19.4653846,15.0230769 C19.4115385,14.9153846 19.3576923,14.8076923 19.3038462,14.7269231 C19.3038462,14.7269231 19.3038462,14.7269231 19.3038462,14.7 C19.25,14.5923077 19.1692308,14.5115385 19.0884615,14.4038462 C19.0884615,14.4038462 19.0884615,14.4038462 19.0884615,14.4038462 C19.0076923,14.4038462 18.9269231,14.3230769 18.8461538,14.2153846 C18.8461538,14.2153846 18.8461538,14.2153846 18.8461538,14.2153846 C18.8461538,14.2153846 18.8461538,14.2153846 18.8461538,14.2153846 Z M17.5,17.2307692 L14.9153846,17.2307692 L15.5346154,17.85 L15.1576923,18.2269231 L13.8923077,16.9615385 L15.1576923,15.6961538 L15.5346154,16.0730769 L14.9153846,16.6923077 L17.5,16.6923077 L17.5,17.2307692 Z" id="Shape" transform="translate(15.884615, 16.934615) scale(-1, 1) translate(-15.884615, -16.934615) "></path>
                        <path d="M5.38461538,2.42307692 L5.00769231,2.42307692 L4.84615385,2.42307692 C4.84615385,2.61153846 4.87307692,2.8 4.9,2.96153846 L12.4115385,2.96153846 C12.3846154,2.8 12.3846154,2.61153846 12.3846154,2.42307692 L7.37692308,2.42307692 L7,2.42307692 L6.46153846,2.42307692 L5.92307692,2.42307692 L5.38461538,2.42307692 Z" id="Shape"></path>
                        <path d="M5.11538462,4.84615385 L5.11538462,4.30769231 C4.79230769,4.30769231 4.46923077,3.76923077 4.33461538,2.96153846 C4.30769231,2.8 4.30769231,2.61153846 4.30769231,2.42307692 C4.30769231,1.34615385 4.73846154,0.538461538 5.11538462,0.538461538 C5.43846154,0.538461538 5.76153846,1.07692308 5.89615385,1.88461538 L6.43461538,1.88461538 C6.3,0.780769231 5.78846154,0 5.11538462,0 C4.33461538,0 3.76923077,1.05 3.76923077,2.42307692 C3.76923077,2.61153846 3.76923077,2.8 3.79615385,2.96153846 C3.93076923,4.06538462 4.44230769,4.84615385 5.11538462,4.84615385 Z" id="Shape"></path>
                        <path d="M14.2692308,4.84615385 L14.2692308,4.30769231 C13.9461538,4.30769231 13.6230769,3.76923077 13.4884615,2.96153846 C13.4615385,2.8 13.4615385,2.61153846 13.4615385,2.42307692 C13.4615385,1.34615385 13.8923077,0.538461538 14.2692308,0.538461538 C14.5923077,0.538461538 14.9153846,1.07692308 15.05,1.88461538 L15.5884615,1.88461538 C15.4538462,0.780769231 14.9423077,0 14.2692308,0 C13.4884615,0 12.9230769,1.05 12.9230769,2.42307692 C12.9230769,2.61153846 12.9230769,2.8 12.95,2.96153846 C13.0846154,4.06538462 13.5961538,4.84615385 14.2692308,4.84615385 Z" id="Shape"></path>
                        <circle id="Oval" cx="6.46153846" cy="10.2307692" r="1"></circle>
                        <circle id="Oval" cx="12.3846154" cy="10.2307692" r="1"></circle>
                        <circle id="Oval" cx="15.3461538" cy="10.2307692" r="1"></circle>
                        <circle id="Oval" cx="9.42307692" cy="10.2307692" r="1"></circle>
                        <circle id="Oval" cx="3.5" cy="13.1923077" r="1"></circle>
                        <circle id="Oval" cx="6.46153846" cy="13.1923077" r="1"></circle>
                        <circle id="Oval" cx="9.42307692" cy="13.1923077" r="1"></circle>
                        <circle id="Oval" cx="3.50230769" cy="10.2276923" r="1"></circle>
                        <circle id="Oval" cx="6.46153846" cy="16.1538462" r="1"></circle>
                        <circle id="Oval" cx="9.42307692" cy="16.1538462" r="1"></circle>
                        <path d="M1.07692308,19.9230769 L11.7115385,19.9230769 C11.5769231,19.7615385 11.4692308,19.5730769 11.3615385,19.3846154 L1.07692308,19.3846154 C0.780769231,19.3846154 0.538461538,19.1423077 0.538461538,18.8461538 L0.538461538,7 L18.3076923,7 L18.3076923,12.4653846 C18.4961538,12.5730769 18.6846154,12.6807692 18.8461538,12.8153846 L18.8461538,3.5 C18.8461538,2.90769231 18.3615385,2.42307692 17.7692308,2.42307692 L16.5307692,2.42307692 L16.1538462,2.42307692 L15.6153846,2.42307692 L15.0769231,2.42307692 L14.5384615,2.42307692 L14.1615385,2.42307692 L14,2.42307692 C14,2.61153846 14.0269231,2.8 14.0538462,2.96153846 L17.7692308,2.96153846 C18.0653846,2.96153846 18.3076923,3.20384615 18.3076923,3.5 L18.3076923,6.46153846 L0.538461538,6.46153846 L0.538461538,3.5 C0.538461538,3.20384615 0.780769231,2.96153846 1.07692308,2.96153846 L3.25769231,2.96153846 C3.23076923,2.8 3.23076923,2.61153846 3.23076923,2.42307692 L1.07692308,2.42307692 C0.484615385,2.42307692 0,2.90769231 0,3.5 L0,18.8461538 C0,19.4384615 0.484615385,19.9230769 1.07692308,19.9230769 Z" id="Shape"></path>
                    </g>
                </g>
            </g>
        </g>
    </g>
</svg>