<?xml version="1.0" encoding="UTF-8"?>
<svg width="27px" height="21px" viewBox="0 0 27 21" version="1.1" xmlns="http://www.w3.org/2000/svg" xmlns:xlink="http://www.w3.org/1999/xlink">
    <!-- Generator: Sketch 51.3 (57544) - http://www.bohemiancoding.com/sketch -->
    <title>Group</title>
    <desc>Created with Sketch.</desc>
    <defs></defs>
    <g id="Page-1" stroke="none" stroke-width="1" fill="none" fill-rule="evenodd">
        <g id="Select-Dates" transform="translate(-24.000000, -834.000000)" fill="#929292" fill-rule="nonzero">
            <g id="UITabBar" transform="translate(0.000000, 825.000000)">
                <g id="Home">
                    <g id="noun_Home_542535" transform="translate(24.000000, 9.000000)">
                        <g id="Group">
                            <path d="M13.5047027,3.0152027 C13.4067973,2.93801351 13.2685946,2.93801351 13.1706892,3.0152027 L3.61710811,10.5547703 C3.55212162,10.6058514 3.51437838,10.6838919 3.51437838,10.766473 L3.51437838,20.7199054 C3.51437838,20.8686081 3.63498649,20.9895 3.78397297,20.9895 L22.8919865,20.9895 C23.0406892,20.9895 23.1615811,20.8686081 23.1615811,20.7199054 L23.1615811,10.7661892 C23.1615811,10.6836081 23.1235541,10.6058514 23.0591351,10.5544865 L13.5047027,3.0152027 Z M15.9168649,20.4503108 L10.7588108,20.4503108 L10.7588108,12.9081892 L15.9168649,12.9081892 L15.9168649,20.4503108 Z M22.6223919,20.4503108 L16.4560541,20.4503108 L16.4560541,12.6385946 C16.4560541,12.4898919 16.3351622,12.369 16.1864595,12.369 L10.4892162,12.369 C10.3402297,12.369 10.2196216,12.4898919 10.2196216,12.6385946 L10.2196216,20.450027 L4.05356757,20.450027 L4.05356757,10.8970135 L13.3378378,3.57 L22.6223919,10.8970135 L22.6223919,20.4503108 Z" id="Shape"></path>
                            <path d="M26.4452432,10.2497027 L13.5191757,0.0683918919 C13.4717838,0.0309324324 13.4127568,0.0105 13.3523108,0.0105 L13.3236486,0.0105 C13.2632027,0.0105 13.2044595,0.0309324324 13.1567838,0.0683918919 L8.94571622,3.38525676 L8.94571622,1.3947973 C8.94571622,1.24581081 8.82510811,1.1252027 8.67612162,1.1252027 L6.47481081,1.1252027 C6.32582432,1.1252027 6.20521622,1.24581081 6.20521622,1.3947973 L6.20521622,5.54371622 L0.230716216,10.2497027 C0.113513514,10.3416486 0.0936486486,10.5113514 0.185594595,10.6282703 C0.277824324,10.745473 0.447243243,10.7650541 0.564162162,10.6731081 L13.3378378,0.612121622 L26.1115135,10.6731081 C26.1608919,10.7119865 26.2199189,10.731 26.2780946,10.731 C26.3578378,10.731 26.4370135,10.695527 26.4900811,10.6282703 C26.5823108,10.5113514 26.5621622,10.3416486 26.4452432,10.2497027 Z M6.74468919,1.66439189 L8.40652703,1.66439189 L8.40652703,3.81008108 L6.74468919,5.11917568 L6.74468919,1.66439189 Z" id="Shape"></path>
                        </g>
                    </g>
                </g>
            </g>
        </g>
    </g>
</svg>